<?xml version="1.0" encoding="utf-8"?>
<svg version="1.1" xmlns:xlink="http://www.w3.org/1999/xlink" width="144px" height="144px" xmlns="http://www.w3.org/2000/svg">
  <g transform="matrix(1 0 0 1 -927 -85 )">
    <path d="M 999 85  C 1039.32 85  1071 116.68  1071 157  C 1071 197.32  1039.32 229  999 229  C 958.68 229  927 197.32  927 157  C 927 116.68  958.68 85  999 85  Z " fill-rule="nonzero" fill="#ffffff" stroke="none" />
    <path d="M 999 85.5  C 1039.04 85.5  1070.5 116.96  1070.5 157  C 1070.5 197.04  1039.04 228.5  999 228.5  C 958.96 228.5  927.5 197.04  927.5 157  C 927.5 116.96  958.96 85.5  999 85.5  Z " stroke-width="1" stroke="#797979" fill="none" />
  </g>
</svg>