<?xml version="1.0" encoding="utf-8"?>
<svg version="1.1" xmlns:xlink="http://www.w3.org/1999/xlink" width="10px" height="10px" xmlns="http://www.w3.org/2000/svg">
  <g transform="matrix(1 0 0 1 -4090 -4680 )">
    <path d="M 4095 4681  C 4097.24 4681  4099 4682.76  4099 4685  C 4099 4687.24  4097.24 4689  4095 4689  C 4092.76 4689  4091 4687.24  4091 4685  C 4091 4682.76  4092.76 4681  4095 4681  Z " fill-rule="nonzero" fill="#e9e9e9" stroke="none" />
    <path d="M 4095 4681  C 4097.24 4681  4099 4682.76  4099 4685  C 4099 4687.24  4097.24 4689  4095 4689  C 4092.76 4689  4091 4687.24  4091 4685  C 4091 4682.76  4092.76 4681  4095 4681  Z " stroke-width="2" stroke="#ffffff" fill="none" />
  </g>
</svg>