<?xml version="1.0" encoding="utf-8"?>
<svg version="1.1" xmlns:xlink="http://www.w3.org/1999/xlink" width="10px" height="10px" xmlns="http://www.w3.org/2000/svg">
  <g transform="matrix(1 0 0 1 -3695 -4680 )">
    <path d="M 3700 4681  C 3702.24 4681  3704 4682.76  3704 4685  C 3704 4687.24  3702.24 4689  3700 4689  C 3697.76 4689  3696 4687.24  3696 4685  C 3696 4682.76  3697.76 4681  3700 4681  Z " fill-rule="nonzero" fill="#1890ff" stroke="none" />
    <path d="M 3700 4681  C 3702.24 4681  3704 4682.76  3704 4685  C 3704 4687.24  3702.24 4689  3700 4689  C 3697.76 4689  3696 4687.24  3696 4685  C 3696 4682.76  3697.76 4681  3700 4681  Z " stroke-width="2" stroke="#ffffff" fill="none" />
  </g>
</svg>