<?xml version="1.0" encoding="utf-8"?>
<svg version="1.1" xmlns:xlink="http://www.w3.org/1999/xlink" width="12px" height="12px" xmlns="http://www.w3.org/2000/svg">
  <g transform="matrix(1 0 0 1 -3892 -4679 )">
    <path d="M 3898 4680  C 3900.8 4680  3903 4682.2  3903 4685  C 3903 4687.8  3900.8 4690  3898 4690  C 3895.2 4690  3893 4687.8  3893 4685  C 3893 4682.2  3895.2 4680  3898 4680  Z " fill-rule="nonzero" fill="#1890ff" stroke="none" />
    <path d="M 3898 4680  C 3900.8 4680  3903 4682.2  3903 4685  C 3903 4687.8  3900.8 4690  3898 4690  C 3895.2 4690  3893 4687.8  3893 4685  C 3893 4682.2  3895.2 4680  3898 4680  Z " stroke-width="2" stroke="#ffffff" fill="none" />
  </g>
</svg>