<?xml version="1.0" encoding="utf-8"?>
<svg version="1.1" xmlns:xlink="http://www.w3.org/1999/xlink" width="149px" height="36px" xmlns="http://www.w3.org/2000/svg">
  <defs>
    <mask fill="white" id="clip122">
      <path d="M 0 31.5  L 0 4.5  C 0 1.98000000000004  2.34142857142862 0  5.32142857142857 0  L 143.678571428571 0  C 146.658571428571 0  149 1.98000000000004  149 4.5  L 149 31.5  C 149 34.02  146.658571428571 36  143.678571428571 36  L 5.32142857142857 36  C 2.34142857142862 36  0 34.02  0 31.5  Z " fill-rule="evenodd" />
    </mask>
  </defs>
  <g transform="matrix(1 0 0 1 -59 -635 )">
    <path d="M 0 31.5  L 0 4.5  C 0 1.98000000000004  2.34142857142862 0  5.32142857142857 0  L 143.678571428571 0  C 146.658571428571 0  149 1.98000000000004  149 4.5  L 149 31.5  C 149 34.02  146.658571428571 36  143.678571428571 36  L 5.32142857142857 36  C 2.34142857142862 36  0 34.02  0 31.5  Z " fill-rule="nonzero" fill="#02a7f0" stroke="none" transform="matrix(1 0 0 1 59 635 )" />
    <path d="M 0 31.5  L 0 4.5  C 0 1.98000000000004  2.34142857142862 0  5.32142857142857 0  L 143.678571428571 0  C 146.658571428571 0  149 1.98000000000004  149 4.5  L 149 31.5  C 149 34.02  146.658571428571 36  143.678571428571 36  L 5.32142857142857 36  C 2.34142857142862 36  0 34.02  0 31.5  Z " stroke-width="2" stroke="#797979" fill="none" transform="matrix(1 0 0 1 59 635 )" mask="url(#clip122)" />
  </g>
</svg>