<?xml version="1.0" encoding="utf-8"?>
<svg version="1.1" xmlns:xlink="http://www.w3.org/1999/xlink" width="155px" height="40px" xmlns="http://www.w3.org/2000/svg">
  <defs>
    <mask fill="white" id="clip127">
      <path d="M 0 35  L 0 5  C 0 2.20000000000005  2.43571428571408 0  5.53571428571429 0  L 149.464285714286 0  C 152.564285714286 0  155 2.20000000000005  155 5  L 155 35  C 155 37.8  152.564285714286 40  149.464285714286 40  L 5.53571428571429 40  C 2.43571428571408 40  0 37.8  0 35  Z " fill-rule="evenodd" />
    </mask>
  </defs>
  <g transform="matrix(1 0 0 1 -923 -46 )">
    <path d="M 0 35  L 0 5  C 0 2.20000000000005  2.43571428571408 0  5.53571428571429 0  L 149.464285714286 0  C 152.564285714286 0  155 2.20000000000005  155 5  L 155 35  C 155 37.8  152.564285714286 40  149.464285714286 40  L 5.53571428571429 40  C 2.43571428571408 40  0 37.8  0 35  Z " fill-rule="nonzero" fill="#f2f2f2" stroke="none" transform="matrix(1 0 0 1 923 46 )" />
    <path d="M 0 35  L 0 5  C 0 2.20000000000005  2.43571428571408 0  5.53571428571429 0  L 149.464285714286 0  C 152.564285714286 0  155 2.20000000000005  155 5  L 155 35  C 155 37.8  152.564285714286 40  149.464285714286 40  L 5.53571428571429 40  C 2.43571428571408 40  0 37.8  0 35  Z " stroke-width="2" stroke="#aaaaaa" fill="none" transform="matrix(1 0 0 1 923 46 )" mask="url(#clip127)" />
  </g>
</svg>