<?xml version="1.0" encoding="utf-8"?>
<svg version="1.1" xmlns:xlink="http://www.w3.org/1999/xlink" width="126px" height="59px" xmlns="http://www.w3.org/2000/svg">
  <defs>
    <mask fill="white" id="clip125">
      <path d="M 0 51.625  L 0 7.375  C 0 3.24500000000007  1.97999999999984 0  4.5 0  L 121.5 0  C 124.02 0  126 3.24500000000007  126 7.375  L 126 51.625  C 126 55.7549999999999  124.02 59  121.5 59  L 4.5 59  C 1.97999999999984 59  0 55.7549999999999  0 51.625  Z " fill-rule="evenodd" />
    </mask>
  </defs>
  <g transform="matrix(1 0 0 1 -410 -595 )">
    <path d="M 0 51.625  L 0 7.375  C 0 3.24500000000007  1.97999999999984 0  4.5 0  L 121.5 0  C 124.02 0  126 3.24500000000007  126 7.375  L 126 51.625  C 126 55.7549999999999  124.02 59  121.5 59  L 4.5 59  C 1.97999999999984 59  0 55.7549999999999  0 51.625  Z " fill-rule="nonzero" fill="#f2f2f2" stroke="none" transform="matrix(1 0 0 1 410 595 )" />
    <path d="M 0 51.625  L 0 7.375  C 0 3.24500000000007  1.97999999999984 0  4.5 0  L 121.5 0  C 124.02 0  126 3.24500000000007  126 7.375  L 126 51.625  C 126 55.7549999999999  124.02 59  121.5 59  L 4.5 59  C 1.97999999999984 59  0 55.7549999999999  0 51.625  Z " stroke-width="2" stroke="#797979" fill="none" transform="matrix(1 0 0 1 410 595 )" mask="url(#clip125)" />
  </g>
</svg>