<?xml version="1.0" encoding="utf-8"?>
<svg version="1.1" xmlns:xlink="http://www.w3.org/1999/xlink" width="199px" height="48px" xmlns="http://www.w3.org/2000/svg">
  <defs>
    <mask fill="white" id="clip124">
      <path d="M 0 42  L 0 6  C 0 2.64000000000005  3.12714285714292 0  7.10714285714286 0  L 191.892857142857 0  C 195.872857142857 0  199 2.64000000000005  199 6  L 199 42  C 199 45.3599999999999  195.872857142857 48  191.892857142857 48  L 7.10714285714286 48  C 3.12714285714292 48  0 45.3599999999999  0 42  Z " fill-rule="evenodd" />
    </mask>
  </defs>
  <g transform="matrix(1 0 0 1 -90 -586 )">
    <path d="M 0 42  L 0 6  C 0 2.64000000000005  3.12714285714292 0  7.10714285714286 0  L 191.892857142857 0  C 195.872857142857 0  199 2.64000000000005  199 6  L 199 42  C 199 45.3599999999999  195.872857142857 48  191.892857142857 48  L 7.10714285714286 48  C 3.12714285714292 48  0 45.3599999999999  0 42  Z " fill-rule="nonzero" fill="#f2f2f2" stroke="none" transform="matrix(1 0 0 1 90 586 )" />
    <path d="M 0 42  L 0 6  C 0 2.64000000000005  3.12714285714292 0  7.10714285714286 0  L 191.892857142857 0  C 195.872857142857 0  199 2.64000000000005  199 6  L 199 42  C 199 45.3599999999999  195.872857142857 48  191.892857142857 48  L 7.10714285714286 48  C 3.12714285714292 48  0 45.3599999999999  0 42  Z " stroke-width="2" stroke="#797979" fill="none" transform="matrix(1 0 0 1 90 586 )" mask="url(#clip124)" />
  </g>
</svg>